<?xml version="1.0" standalone="no"?><!DOCTYPE svg PUBLIC "-//W3C//DTD SVG 1.1//EN" "http://www.w3.org/Graphics/SVG/1.1/DTD/svg11.dtd"><svg t="1710417924804" class="icon" viewBox="0 0 1024 1024" version="1.1" xmlns="http://www.w3.org/2000/svg" p-id="2097" xmlns:xlink="http://www.w3.org/1999/xlink" width="200" height="200"><path d="M512 47.104c-253.952 0-460.8 184.32-460.8 409.6 0 186.368 141.312 346.112 333.824 393.216l126.976 126.976 126.976-126.976c192.512-49.152 333.824-206.848 333.824-393.216 0-225.28-206.848-409.6-460.8-409.6z m231.424 698.368c-43.008 26.624-90.112 47.104-143.36 57.344l-63.488 63.488-24.576 24.576-24.576-24.576-63.488-63.488c-53.248-10.24-100.352-30.72-143.36-57.344-102.4-63.488-167.936-169.984-167.936-288.768C112.64 260.096 290.816 102.4 512 102.4s399.36 159.744 399.36 354.304c0 118.784-67.584 225.28-167.936 288.768z" fill="#8a8a8a" p-id="2098"></path><path d="M733.184 460.8c-10.24 0-20.48 6.144-26.624 14.336-38.912 67.584-110.592 110.592-194.56 110.592-81.92 0-155.648-45.056-194.56-110.592-6.144-8.192-16.384-14.336-26.624-14.336-24.576 0-38.912 26.624-26.624 45.056 49.152 83.968 141.312 141.312 247.808 141.312 104.448 0 196.608-57.344 247.808-141.312 10.24-20.48-4.096-45.056-26.624-45.056z" fill="#8a8a8a" p-id="2099"></path></svg>